<svg width="176" height="201" viewBox="0 0 176 201" fill="none" xmlns="http://www.w3.org/2000/svg">
    <g>
        <path
            d="M46.675 44C46.675 35.3805 49.6476 23.3254 54.9388 17.2304C60.23 11.1355 67.4064 7.71142 74.8893 7.71142C82.3722 7.71142 89.5486 11.1355 94.8398 17.2304C100.131 23.3254 103.104 31.5919 103.104 40.2114V157.211C103.104 162.383 101.32 167.343 98.1454 171C94.9706 174.657 90.6648 176.711 86.175 176.711C81.6853 176.711 77.3795 174.657 74.2047 171C71.03 167.343 69.2465 162.383 69.2465 157.211V66.2114C69.2465 64.4875 69.841 62.8342 70.8992 61.6152C71.9575 60.3962 73.3927 59.7114 74.8893 59.7114C76.3859 59.7114 77.8212 60.3962 78.8794 61.6152C79.9377 62.8342 80.5322 64.4875 80.5322 66.2114V157.211C80.5322 158.935 81.1267 160.589 82.1849 161.808C83.2432 163.027 84.6785 163.711 86.175 163.711C87.6716 163.711 89.1069 163.027 90.1651 161.808C91.2234 160.589 91.8179 158.935 91.8179 157.211V40.2114C91.8179 37.6506 91.38 35.1149 90.5293 32.7491C89.6785 30.3832 88.4316 28.2336 86.8596 26.4228C85.2877 24.6121 83.4215 23.1757 81.3676 22.1958C79.3137 21.2158 77.1124 20.7114 74.8893 20.7114C72.6662 20.7114 70.4649 21.2158 68.411 22.1958C66.3572 23.1757 64.491 24.6121 62.919 26.4228C61.3471 28.2336 60.1001 30.3832 59.2494 32.7491C58.3986 35.1149 57.9608 41.4392 57.9608 44C46.675 44 46.675 44 46.675 44Z"
            fill="#9C9708"
            stroke="#000000"
            stroke-width="2"
            shape-rendering="crispEdges"
        />
    </g>
    <g>
        <path
            fill-rule="evenodd"
            clip-rule="evenodd"
            d="M56.0189 18.1746C50.8969 24.0747 47 37.1036 47 45.5H57.2857V40.5C57.2857 37.8261 57.7428 35.1757 58.6333 32.6993C59.5238 30.2229 60.832 27.9644 62.4888 26.0559C64.1459 24.147 66.1209 22.6241 68.3054 21.5818C70.4904 20.5393 72.8386 20 75.2143 20C77.59 20 79.9381 20.5393 82.1232 21.5818C84.3077 22.6241 86.2826 24.147 87.9397 26.0559C89.5966 27.9644 90.9048 30.2229 91.7953 32.6993C92.6858 35.1757 93.1429 37.826 93.1429 40.5V157.5C93.1429 159.447 92.4727 161.338 91.2452 162.752C90.014 164.17 88.3111 165 86.5 165C84.6889 165 82.986 164.17 81.7548 162.752C80.5273 161.338 79.8571 159.447 79.8571 157.5V66.5C79.8571 64.9992 79.3383 63.5835 78.4492 62.5594C77.5641 61.5397 76.3963 61 75.2143 61C74.0322 61 72.8645 61.5397 71.9793 62.5594C71.0903 63.5835 70.5714 64.9992 70.5714 66.5V157.5C70.5714 162.449 72.2793 167.171 75.2848 170.633C78.2865 174.091 82.3248 176 86.5 176C90.6752 176 94.7135 174.091 97.7152 170.633C100.721 167.171 102.429 162.449 102.429 157.5V40.5C102.429 32.1036 99.5317 24.0747 94.4097 18.1746C89.2915 12.279 82.3827 9 75.2143 9C68.0459 9 61.1371 12.279 56.0189 18.1746Z"
            fill="none"
            stroke="#000000"
            stroke-width="2"
        />
    </g>
</svg>
